<svg xmlns="http://www.w3.org/2000/svg" xmlns:xlink="http://www.w3.org/1999/xlink" width="28" height="25" viewBox="0 0 28 25"><defs><path id="wblza" d="M544.78 1424.996a.796.796 0 0 1-.793-.798v-18.387c0-.444.357-.804.798-.804h1.826a.394.394 0 0 0 .393-.395v-1.177a3.418 3.418 0 0 1 3.408-3.427h5.204c1.882 0 3.408 1.534 3.408 3.427v1.177c0 .218.176.395.393.395h1.774c.441 0 .8.36.8.804v18.387c0 .44-.356.798-.795.798zm5.36-23.008a1.16 1.16 0 0 0-1.158 1.164v1.46c0 .218.176.395.393.395h7.239a.394.394 0 0 0 .393-.395v-1.46a1.16 1.16 0 0 0-1.157-1.164zm-7.952 2.988c.439 0 .794.357.794.798v18.424c0 .441-.355.798-.794.798h-1.217a1.971 1.971 0 0 1-1.966-1.977v-16.066c0-1.092.88-1.977 1.966-1.977zm20.807.798c0-.44.355-.798.793-.798h1.249c1.086 0 1.966.885 1.966 1.977v16.066c0 1.092-.88 1.977-1.966 1.977h-1.249a.796.796 0 0 1-.793-.798z"/></defs><g><g transform="translate(-539 -1400)"><use fill="#3c3c3c" xlink:href="#wblza"/></g></g></svg>