<svg xmlns="http://www.w3.org/2000/svg" xmlns:xlink="http://www.w3.org/1999/xlink" width="26" height="26" viewBox="0 0 26 26"><defs><path id="vngra" d="M273.008 1411.992c0 7.182-5.822 13.004-13.004 13.004-7.182 0-13.004-5.822-13.004-13.004 0-7.182 5.822-13.004 13.004-13.004 7.182 0 13.004 5.822 13.004 13.004zm-12.026 9.332a1.152 1.152 0 0 0 1.394.997 10.615 10.615 0 0 0 7.187-5.738 1.96 1.96 0 0 0-.583-2.407c-.444-.336-.919-.622-1.36-.915-1.844-1.564-1.067-2.213.56-2.582l.027-.006c1.331-.306 2.04-1.77 1.48-3.017a10.61 10.61 0 0 0-9.683-6.273c-.61 0-1.208.057-1.79.158a.552.552 0 0 0-.435.679c.06.241.133.498.22.76.389 1.174 1.128.907 2.498.55 1.37-.357 2.523.212 2.603 1.57.08 1.357-1.697 1.815-2.475 2.731-.777.916-.06 2.079-.046 2.656.014.577-.613.5-1.074.041-1.099-1.318-1.776-.946-2.13-.832-.352.113-1.402.793-.818 2.375.584 1.582 2.231.633 4.608.955 2.377.322 4.25 1.635 1.793 4.168-1.36 1.416-2.054 3.236-1.976 4.13zm-11.587-9.332c0 5.19 3.73 9.5 8.653 10.418a.425.425 0 0 0 .461-.609c-.297-.59-1.019-1.324-1.58-2.5-1.28-2.944-.516-4.401-1.355-6.114-.838-1.713-2.175-1.78-2.517-4.046-.341-2.266-.038-3.423 1.727-4.797 1.398-1.087 1.728-1.547 1.568-1.928-.077-.184-.301-.263-.486-.185-3.8 1.613-6.47 5.371-6.47 9.76z"/></defs><g><g transform="translate(-247 -1399)"><use fill="#3c3c3c" xlink:href="#vngra"/></g></g></svg>