<svg xmlns="http://www.w3.org/2000/svg" xmlns:xlink="http://www.w3.org/1999/xlink" width="15" height="10" viewBox="0 0 15 10"><defs><path id="rvvba" d="M703.265 3519.002c-.407 0-.582.53-.26.784l6.064 4.784a.687.687 0 0 0 .854 0l6.077-4.784c.322-.254.148-.784-.259-.784zm6.85 6.707a.973.973 0 0 1-1.234 0l-6.168-5.02c-.283-.232-.701-.024-.701.348v7.048a.9.9 0 0 0 .887.913h13.21a.9.9 0 0 0 .887-.913v-7.049c0-.372-.417-.58-.701-.349z"/></defs><g><g transform="translate(-702 -3519)"><use fill="#797979" xlink:href="#rvvba"/></g></g></svg>