<svg xmlns="http://www.w3.org/2000/svg" xmlns:xlink="http://www.w3.org/1999/xlink" width="36" height="36" viewBox="0 0 36 36"><defs><path id="e2pla" d="M1097 63V27h36v36zm2-18c0 8.837 7.163 16 16 16s16-7.163 16-16c0-8.836-7.163-16-16-16s-16 7.164-16 16z"/><path id="e2plb" d="M1115 29c8.837 0 16 7.164 16 16 0 8.837-7.163 16-16 16s-16-7.163-16-16c0-8.836 7.163-16 16-16z"/><path id="e2pld" d="M1116.948 40.015h2.062v-3.046h-2.424v.011c-2.936.103-3.539 1.755-3.591 3.49h-.006v1.52h-2v2.983h2v7.996h3.014v-7.996h2.47l.475-2.983h-2.945v-.92c0-.584.39-1.055.945-1.055z"/><clipPath id="e2plc"><use fill="#fff" xlink:href="#e2pla"/></clipPath></defs><g><g transform="translate(-1097 -27)"><g><use fill="#fff" xlink:href="#e2plb"/><use fill="#fff" fill-opacity="0" stroke="#f2f2f2" stroke-linecap="round" stroke-linejoin="round" stroke-miterlimit="50" stroke-width="4" clip-path="url(&quot;#e2plc&quot;)" xlink:href="#e2plb"/></g><g><use fill="#3c3c3c" xlink:href="#e2pld"/></g></g></g></svg>