<svg xmlns="http://www.w3.org/2000/svg" xmlns:xlink="http://www.w3.org/1999/xlink" width="26" height="23" viewBox="0 0 26 23"><defs><path id="s7fza" d="M1147.98 1403.993h-15v-1.127c0-.481.39-.871.873-.871h13.253c.483 0 .874.39.874.87zm.992 5.003h-17.984v-3.03c0-.541.44-.98.982-.98h16.019c.543 0 .983.439.983.98zm3.77.458c.201.38.29.81.258 1.238l-1 13.093a1.312 1.312 0 0 1-1.31 1.211h-21.372a1.313 1.313 0 0 1-1.31-1.21l-1.006-13.093a2.28 2.28 0 0 1 .256-1.24l1.877-3.278c.1-.19.319-.285.527-.23.2.053.348.235.35.442l.027 3.166c.002.25.206.452.457.452h19.009a.457.457 0 0 0 .457-.452l.028-3.166a.46.46 0 0 1 .342-.44.47.47 0 0 1 .533.228zm-10.418 9.536c2.029 0 3.673-1.657 3.673-3.7 0-.626-.276-1.305-1.124-1.305-.893 0-1.169.726-1.169 1.352 0 .758-.61 1.372-1.363 1.372h-4.703a1.368 1.368 0 0 1-1.363-1.372c0-.626-.191-1.352-1.147-1.352-.912 0-1.125.68-1.125 1.305 0 2.043 1.645 3.7 3.674 3.7z"/></defs><g><g transform="translate(-1127 -1402)"><use fill="#3c3c3c" xlink:href="#s7fza"/></g></g></svg>