<svg xmlns="http://www.w3.org/2000/svg" xmlns:xlink="http://www.w3.org/1999/xlink" width="36" height="36" viewBox="0 0 36 36"><defs><path id="gjdfa" d="M1238 63V27h36v36zm2-18c0 8.837 7.163 16 16 16s16-7.163 16-16c0-8.836-7.163-16-16-16s-16 7.164-16 16z"/><path id="gjdfb" d="M1256 29c8.837 0 16 7.164 16 16 0 8.837-7.163 16-16 16s-16-7.163-16-16c0-8.836 7.163-16 16-16z"/><path id="gjdfd" d="M1258.498 51.823c-2.112 1.865-8.535 1.615-8.535-1.846 0-3.46 4.833-3.514 5.227-3.514.39 0 .457-.11.13-.46-.327-.35-.85-1.03-.24-1.777-1.09.044-4.093-.549-4.093-3.316 0-2.765 2.895-3.95 3.94-3.95h5.203s-.238.199-.783.504c-.545.307-1.567.155-1.567.155s1.415.877 1.415 2.59c0 1.712-.827 2.458-1.872 3.38-1.046.922-.436 1.47 1.197 2.634 1.633 1.162 2.09 3.734-.022 5.6zm-3.789-14.335c-3.048 0-1.873 6.057.72 6.057 3.439 0 1.653-6.146-.72-6.057zm3.832 12.313c0-1.494-1.423-2.24-2.22-2.854-2.94 0-4.508.79-4.508 2.393 0 1.602 1.154 2.678 3.308 2.678 2.152 0 3.42-.724 3.42-2.217zm4.474-12.8v1.969h1.959v1.023h-1.959v1.972h-1.017v-1.972h-1.993V38.97h1.993V37z"/><clipPath id="gjdfc"><use fill="#fff" xlink:href="#gjdfa"/></clipPath></defs><g><g transform="translate(-1238 -27)"><g><use fill="#fff" xlink:href="#gjdfb"/><use fill="#fff" fill-opacity="0" stroke="#f2f2f2" stroke-linecap="round" stroke-linejoin="round" stroke-miterlimit="50" stroke-width="4" clip-path="url(&quot;#gjdfc&quot;)" xlink:href="#gjdfb"/></g><g><use fill="#3c3c3c" xlink:href="#gjdfd"/></g></g></g></svg>