<svg xmlns="http://www.w3.org/2000/svg" xmlns:xlink="http://www.w3.org/1999/xlink" width="32" height="32" viewBox="0 0 32 32"><defs><path id="6dgta" d="M283 4760c8.837 0 16 7.164 16 16 0 8.837-7.163 16-16 16s-16-7.163-16-16c0-8.836 7.163-16 16-16z"/><path id="6dgtb" d="M285.498 4782.823c-2.112 1.865-8.535 1.615-8.535-1.846 0-3.46 4.833-3.514 5.227-3.514.39 0 .457-.11.13-.46-.327-.35-.85-1.03-.24-1.777-1.09.044-4.093-.549-4.093-3.316 0-2.765 2.895-3.95 3.94-3.95h5.203s-.238.199-.783.504c-.545.308-1.567.155-1.567.155s1.415.876 1.415 2.589-.827 2.46-1.872 3.381c-1.046.922-.436 1.47 1.197 2.634 1.633 1.162 2.09 3.734-.022 5.6zm-3.789-14.335c-3.048 0-1.873 6.056.72 6.056 3.439 0 1.653-6.146-.72-6.056zm3.832 12.313c0-1.494-1.423-2.24-2.22-2.854-2.94 0-4.508.79-4.508 2.393 0 1.602 1.154 2.678 3.308 2.678 2.152 0 3.42-.724 3.42-2.217zm4.474-12.8v1.969h1.96v1.023h-1.96v1.972h-1.017v-1.972h-1.993v-1.023h1.993V4768z"/></defs><g><g transform="translate(-267 -4760)"><g><use fill="#fff" xlink:href="#6dgta"/></g><g><use fill="#3c3c3c" xlink:href="#6dgtb"/></g></g></g></svg>