<svg xmlns="http://www.w3.org/2000/svg" xmlns:xlink="http://www.w3.org/1999/xlink" width="32" height="32" viewBox="0 0 32 32"><defs><path id="4xc1a" d="M236 4760c8.837 0 16 7.164 16 16s-7.163 16-16 16-16-7.164-16-16 7.163-16 16-16z"/><path id="4xc1b" d="M245.003 4770.477v11.047a3.483 3.483 0 0 1-3.48 3.479h-11.046a3.483 3.483 0 0 1-3.48-3.48v-11.046c0-1.918 1.561-3.479 3.48-3.479h11.046c1.919 0 3.48 1.56 3.48 3.48zm-5.011-1.458l.01 2.989 3.01-.01v-2.989l-.393.002zm-7.004 6.982a3.015 3.015 0 0 0 3.012 3.01 3.016 3.016 0 0 0 3.012-3.01c0-.668-.516-3.013-3.012-3.013-2.497 0-3.012 2.345-3.012 3.013zm10.042-2.005h-2.47c.232.571.363 1.35.363 2.005a4.929 4.929 0 0 1-4.923 4.923 4.929 4.929 0 0 1-4.923-4.923c0-.654.13-1.434.362-2.005h-2.5v7.309c0 .951.774 1.725 1.726 1.725h10.64c.95 0 1.725-.774 1.725-1.725z"/></defs><g><g transform="translate(-220 -4760)"><g><use fill="#fff" xlink:href="#4xc1a"/></g><g><use fill="#3c3c3c" xlink:href="#4xc1b"/></g></g></g></svg>