<svg xmlns="http://www.w3.org/2000/svg" xmlns:xlink="http://www.w3.org/1999/xlink" width="36" height="36" viewBox="0 0 36 36"><defs><path id="iumka" d="M1191 63V27h36v36zm2-18c0 8.837 7.163 16 16 16s16-7.163 16-16c0-8.836-7.163-16-16-16s-16 7.164-16 16z"/><path id="iumkb" d="M1209 29c8.837 0 16 7.164 16 16 0 8.837-7.163 16-16 16s-16-7.163-16-16c0-8.836 7.163-16 16-16z"/><path id="iumkd" d="M1218.003 39.477v11.046a3.483 3.483 0 0 1-3.48 3.48h-11.046a3.483 3.483 0 0 1-3.48-3.48V39.477c0-1.919 1.561-3.48 3.48-3.48h11.046c1.919 0 3.48 1.561 3.48 3.48zm-5.011-1.458l.01 2.989 3.01-.01V38.01l-.393.002zM1205.988 45a3.015 3.015 0 0 0 3.012 3.01 3.016 3.016 0 0 0 3.012-3.01c0-.669-.516-3.013-3.012-3.013-2.497 0-3.012 2.344-3.012 3.013zm10.042-2.005h-2.47c.232.571.363 1.35.363 2.005a4.929 4.929 0 0 1-4.923 4.922 4.929 4.929 0 0 1-4.923-4.922c0-.654.13-1.434.362-2.005h-2.5v7.309c0 .951.774 1.725 1.726 1.725h10.64c.95 0 1.725-.774 1.725-1.725z"/><clipPath id="iumkc"><use fill="#fff" xlink:href="#iumka"/></clipPath></defs><g><g transform="translate(-1191 -27)"><g><use fill="#fff" xlink:href="#iumkb"/><use fill="#fff" fill-opacity="0" stroke="#f2f2f2" stroke-linecap="round" stroke-linejoin="round" stroke-miterlimit="50" stroke-width="4" clip-path="url(&quot;#iumkc&quot;)" xlink:href="#iumkb"/></g><g><use fill="#3c3c3c" xlink:href="#iumkd"/></g></g></g></svg>