<svg xmlns="http://www.w3.org/2000/svg" xmlns:xlink="http://www.w3.org/1999/xlink" width="30" height="29" viewBox="0 0 30 29"><defs><path id="33vma" d="M858.593 1405.051a.99.99 0 0 0 .84.777l1.188.15c.871.11 1.49.914 1.382 1.798l-2.179 17.827a1.579 1.579 0 0 1-1.773 1.393l-22.567-2.824a1.617 1.617 0 0 1-1.382-1.805l.615-5.026-2.69-12.436a1.612 1.612 0 0 1 1.211-1.92l22.212-4.942a1.59 1.59 0 0 1 1.893 1.23zm-2.796.32a.422.422 0 0 0 .46-.515l-.781-3.524a.827.827 0 0 0-.988-.634l-10.838 2.472c-.372.085-.346.63.032.678zm-20.78 2.977c.1.453.748.42.804-.04l.347-2.84a.429.429 0 0 0-.517-.474l-.628.143a.71.71 0 0 0-.53.85zm21.906 16.21a.825.825 0 0 0 .919-.734l1.724-14.736a.836.836 0 0 0-.723-.931l-19.687-2.37a.83.83 0 0 0-.918.734l-1.725 14.743c-.053.46.27.876.724.93zm-.027-12.678c0 .938-.75 1.698-1.674 1.698-.925 0-1.674-.76-1.674-1.698 0-.937.75-1.697 1.674-1.697.924 0 1.674.76 1.674 1.697zm-1.48 8.872c.244.382-.062.879-.507.824l-15.34-1.882c-.546-.067-.77-.75-.372-1.136l6.305-6.113a.958.958 0 0 1 1.478.175l1.798 2.815a.822.822 0 0 0 1.268.151l.666-.645a.697.697 0 0 1 1.075.128z"/></defs><g><g transform="translate(-832 -1398)"><use fill="#3c3c3c" xlink:href="#33vma"/></g></g></svg>