<svg xmlns="http://www.w3.org/2000/svg" xmlns:xlink="http://www.w3.org/1999/xlink" width="32" height="32" viewBox="0 0 32 32"><defs><path id="6glba" d="M189 4760c8.837 0 16 7.164 16 16 0 8.837-7.163 16-16 16-8.836 0-16-7.163-16-16 0-8.836 7.164-16 16-16z"/><path id="6glbb" d="M189.484 4767.006c-5.637 0-8.48 3.914-8.48 7.177 0 1.975.773 3.734 2.43 4.388.272.108.516.004.594-.287.055-.201.185-.71.243-.922.079-.288.048-.389-.17-.64-.479-.546-.784-1.252-.784-2.253 0-2.903 2.243-5.502 5.841-5.502 3.186 0 4.937 1.885 4.937 4.402 0 3.313-1.514 6.108-3.762 6.108-1.24 0-2.17-.993-1.872-2.213.357-1.455 1.047-3.025 1.047-4.076 0-.94-.521-1.725-1.6-1.725-1.268 0-2.288 1.271-2.288 2.974 0 1.084.378 1.818.378 1.818l-1.526 6.26c-.453 1.858-.068 4.135-.035 4.365.019.137.2.17.282.067.117-.149 1.628-1.955 2.142-3.76.145-.511.834-3.158.834-3.158.413.762 1.617 1.431 2.899 1.431 3.814 0 6.401-3.366 6.401-7.872 0-3.408-2.98-6.582-7.51-6.582z"/></defs><g><g transform="translate(-173 -4760)"><g><use fill="#fff" xlink:href="#6glba"/></g><g><use fill="#3c3c3c" xlink:href="#6glbb"/></g></g></g></svg>