<svg xmlns="http://www.w3.org/2000/svg" xmlns:xlink="http://www.w3.org/1999/xlink" width="14" height="14" viewBox="0 0 14 14"><defs><path id="o079a" d="M524.376 3527.642c3.264 3.271 6.186 4.255 6.592 4.313.407.059 1.073.185 2.04-.78 1.131-1.133 1.245-1.73.622-2.353-.623-.625-2.17-1.57-2.59-1.813-.421-.243-.779-.165-1.082.047-.303.212-.653.481-.978.716-.324.236-.729.335-1.164.059a11.788 11.788 0 0 1-2.003-1.629 11.804 11.804 0 0 1-1.625-2.007c-.276-.436-.176-.842.058-1.167.235-.325.504-.676.715-.98.212-.304.29-.662.047-1.084-.243-.421-1.185-1.972-1.808-2.596-.623-.624-1.218-.51-2.35.624-.966.969-.835 1.636-.777 2.044.058.407 1.04 3.336 4.303 6.606z"/></defs><g><g transform="translate(-520 -3518)"><use fill="#797979" xlink:href="#o079a"/></g></g></svg>